@startuml

skinparam state {
    BackgroundColor<<APP>> APPLICATION
    BackgroundColor<<STRUCT>> Lavender
}

state color_coding {
    state SDK_API
    state SDK_DATA_OBJECT <<STRUCT>>
    state APPLICATION_CODE <<APP>>
}

' Init
[*] --> az_iot_hub_client_init: START
az_iot_hub_client_init -> az_iot_hub_client_user_name_get
az_iot_hub_client_user_name_get -> az_iot_hub_client_id_get
az_iot_hub_client_id_get -> application_mqtt_connect: X509 Client Auth: password is empty
state application_mqtt_connect <<APP>>

' Optional SAS token generation:
az_iot_hub_client_id_get -> az_iot_hub_client_sas_signature_get : SAS auth
az_iot_hub_client_sas_signature_get -> application_hmac256
application_hmac256 -> az_iot_hub_client_sas_password_get
az_iot_hub_client_sas_password_get --> application_mqtt_connect : password is a SAS token
state application_hmac256 <<APP>>

' Telemetry
application_mqtt_connect --> az_iot_hub_client_telemetry_publish_topic_get : Telemetry can be used w/o subscribing to any topic.
az_iot_hub_client_telemetry_publish_topic_get --> application_mqtt_publish

' C2D
application_mqtt_connect --> az_iot_hub_client_c2d_subscribe_topic_filter_get
az_iot_hub_client_c2d_subscribe_topic_filter_get --> application_mqtt_subscribe

' Methods
application_mqtt_connect --> az_iot_hub_client_methods_subscribe_topic_filter_get
az_iot_hub_client_methods_subscribe_topic_filter_get --> application_mqtt_subscribe

az_iot_hub_client_methods_response_publish_topic_get --> application_mqtt_publish

' Twin
application_mqtt_connect --> az_iot_hub_client_twin_response_subscribe_topic_filter_get
az_iot_hub_client_twin_response_subscribe_topic_filter_get --> application_mqtt_subscribe

application_mqtt_connect --> az_iot_hub_client_twin_patch_subscribe_topic_filter_get
az_iot_hub_client_twin_patch_subscribe_topic_filter_get --> application_mqtt_subscribe


application_mqtt_subscribe --> az_iot_hub_client_twin_get_publish_topic_get
az_iot_hub_client_twin_get_publish_topic_get --> application_mqtt_publish

application_mqtt_subscribe --> az_iot_hub_client_twin_patch_publish_topic_get
az_iot_hub_client_twin_patch_publish_topic_get --> application_mqtt_publish

' Common subscribe
state application_mqtt_subscribe <<APP>>
application_mqtt_subscribe -> application_mqtt_receive : MQTT lib subscribed

state application_mqtt_publish <<APP>>

state application_mqtt_receive <<APP>> { 
' Callback delegating handler:
    [*] --> az_iot_hub_client_c2d_received_topic_parse : Received PUBLISH message
    az_iot_hub_client_c2d_received_topic_parse --> az_iot_hub_client_methods_received_topic_parse : not c2d related
    az_iot_hub_client_methods_received_topic_parse --> az_iot_hub_client_twin_received_topic_parse : not methods related
    az_iot_hub_client_twin_received_topic_parse --> [*] : not twin related

' C2D
    az_iot_hub_client_c2d_received_topic_parse -> az_iot_hub_client_c2d_request : c2d call received
    
' Methods:
    az_iot_hub_client_methods_received_topic_parse -> az_iot_hub_client_method_request : method call received
    az_iot_hub_client_method_request -> application_method_handle
    state application_method_handle <<APP>>
    application_method_handle -> az_iot_hub_client_methods_response_publish_topic_get
    
' Twin
    az_iot_hub_client_twin_received_topic_parse -> az_iot_hub_client_twin_response : twin GET or PATCH received
}

' IoT Hub client:
az_iot_hub_client_init : - iot_hub_hostname
az_iot_hub_client_init : - device_id

az_iot_hub_client_user_name_get : - iot_hub

' SAS Tokens
az_iot_hub_client_sas_signature_get : - unix_time
az_iot_hub_client_sas_password_get: - Base64(HMAC-SHA256(signature, SharedAccessKey))

az_iot_hub_client_telemetry_publish_topic_get : - az_iot_hub_client_properties

state az_iot_hub_client_method_request <<STRUCT>>
az_iot_hub_client_method_request: - request_id
az_iot_hub_client_method_request: - name

az_iot_hub_client_methods_response_publish_topic_get: - request_id
az_iot_hub_client_methods_response_publish_topic_get: - status

state az_iot_hub_client_c2d_request <<STRUCT>>
az_iot_hub_client_c2d_request : - az_iot_hub_client_properties

az_iot_hub_client_twin_get_publish_topic_get : - request_id

az_iot_hub_client_twin_patch_publish_topic_get : - request_id
az_iot_hub_client_twin_patch_publish_topic_get : - if_match_version

state az_iot_hub_client_twin_response <<STRUCT>>
az_iot_hub_client_twin_response : - response_type
az_iot_hub_client_twin_response : - request_id
az_iot_hub_client_twin_response : - status
az_iot_hub_client_twin_response : - version

' Application interfaces
application_mqtt_connect : - server_x509_trusted_root
application_mqtt_connect : - [client_x509_certificate]
application_hmac256 : - key (may be within an HSM)

@enduml
